<?xml version="1.0" encoding="UTF-8"?>
<svg id="Layer_2" data-name="Layer 2" xmlns="http://www.w3.org/2000/svg" viewBox="0 0 840.19 245.68">
  <defs>
    <style>
      .cls-1 {
        fill: #006359;
      }

      .cls-2 {
        fill: #00a99d;
      }
    </style>
  </defs>
  <g id="Layer_1-2" data-name="Layer 1">
    <g>
      <g>
        <path class="cls-1" d="m407.64,88.14c0-11,9.13-18.68,19.72-18.68,13.07,0,19.3,11.41,22.42,22.62l29.26-5.19c-2.7-27.19-23.25-44.83-50.64-44.83s-52.52,20.76-52.52,49.81c0,55.01,75.97,36.33,75.97,68.71,0,13.91-10.59,20.55-23.25,20.55-15.36,0-22.41-10.17-25.32-23.87l-32.38,4.77c4.98,31.55,27.19,46.5,57.91,46.5,39.85,0,54.8-29.48,54.8-49.2,0-60.19-75.97-39.43-75.97-71.19Z"/>
        <path class="cls-1" d="m567.46,87.31c-12.87,0-24.91,6.43-34.67,14.53v-57.29h-30.72v161.49h30.72v-81.37c5.82-6.23,12.87-12.66,21.8-12.66,13.28,0,12.66,14.74,12.66,24.08v69.95h30.72v-82.41c0-28.64-17.85-36.32-30.51-36.32Z"/>
        <path class="cls-1" d="m667.91,87.31c-34.04,0-51.06,29.68-51.06,60.61s17.23,60.61,51.06,60.61,51.07-29.89,51.07-60.61-17.02-60.61-51.07-60.61Zm0,98.59c-16.6,0-19.51-23.45-19.51-37.98s2.91-37.99,19.51-37.99,19.52,23.46,19.52,37.99-2.91,37.98-19.52,37.98Z"/>
        <path class="cls-1" d="m797.64,87.31c-12.46,0-19.93,6.22-28.65,13.9v-11.41h-30.72v155.88h30.72v-47.95c8.51,6.44,16.4,10.8,26.16,10.8,23.45,0,45.04-14.53,45.04-63.52,0-42.96-25.74-57.7-42.55-57.7Zm-8.72,98.59c-9.13,0-15.15-6.43-19.93-13.7v-44.83c5.4-6.44,11.63-12.66,20.55-12.66,17.02,0,20.55,21.58,20.55,34.45,0,13.91-2.7,36.74-21.17,36.74Z"/>
      </g>
      <g>
        <path class="cls-2" d="m30.99,120.64c-.13.92-.98,1.15-2.55.69-1.57-.46-3.5-1.31-5.79-2.55-2.29-1.24-4.77-2.75-7.45-4.51-2.68-1.77-5.13-3.6-7.36-5.49-2.22-1.89-4.09-3.63-5.59-5.2-1.5-1.57-2.26-2.81-2.26-3.73,1.7-6.28,4.32-12.75,7.85-19.42,3.53-6.67,7.75-13.17,12.65-19.52,4.9-6.34,10.36-12.36,16.38-18.05,6.01-5.69,12.32-10.69,18.93-15.01,6.6-4.32,13.34-7.75,20.21-10.3,6.87-2.55,13.7-3.89,20.5-4.02,2.35,0,4.84.59,7.46,1.77,2.61,1.18,5.13,2.75,7.55,4.71,2.42,1.96,4.58,4.22,6.47,6.77,1.89,2.55,3.3,5.13,4.22,7.75,1.18,4.58,1.47,10.27.88,17.07-.59,6.8-1.77,14.26-3.53,22.36-1.77,8.11-4.02,16.67-6.77,25.7-2.75,9.02-5.69,18.05-8.83,27.07-3.14,9.02-6.34,17.85-9.61,26.48-3.27,8.63-6.34,16.61-9.22,23.93-1.83,4.58-3.53,8.86-5.1,12.85-1.57,3.99-2.91,7.52-4.02,10.59-1.11,3.07-1.96,5.52-2.55,7.36-.59,1.83-.82,2.94-.69,3.33v.78h.2c14.52-11.77,28.48-25.73,41.88-41.88,13.4-16.15,25.6-33.54,36.58-52.18s20.47-37.96,28.44-57.97c7.98-20.01,13.86-39.69,17.66-59.05.52-1.31,2.03-1.31,4.51,0,2.48,1.31,5.1,3.21,7.85,5.69,2.75,2.49,5.2,5.1,7.36,7.85,2.16,2.75,3.17,4.84,3.04,6.28-2.09,8.76-5.3,18.44-9.61,29.03-4.32,10.59-9.39,21.58-15.2,32.96-5.82,11.38-12.23,22.89-19.22,34.52-7,11.64-14.29,22.85-21.87,33.64-7.59,10.79-15.27,20.96-23.05,30.5-7.78,9.55-15.33,17.95-22.66,25.21-7.33,7.26-14.29,13.04-20.89,17.36-6.6,4.32-12.52,6.73-17.75,7.26-2.62-.13-5.3-.85-8.04-2.16-2.75-1.31-5.3-3.07-7.65-5.3-2.35-2.22-4.35-4.74-5.98-7.55-1.64-2.81-2.65-5.72-3.04-8.73,2.48-14.12,6.08-27.72,10.79-40.8,4.71-13.08,9.74-26.29,15.1-39.62,5.36-13.73,10.66-27.72,15.89-41.98,5.23-14.25,9.15-29.36,11.77-45.31.26-.91.52-1.89.78-2.94.26-1.04.26-1.44,0-1.18-1.96.39-4.54,1.57-7.75,3.53-3.21,1.96-6.74,4.45-10.59,7.45-3.86,3.01-7.91,6.44-12.16,10.3-4.25,3.86-8.37,7.94-12.36,12.26-3.99,4.32-7.72,8.76-11.18,13.34-3.47,4.58-6.44,9.02-8.93,13.34-2.49,4.32-4.25,8.44-5.3,12.36-1.05,3.92-1.18,7.45-.39,10.59v1.77Z"/>
        <path class="cls-2" d="m235.01,89.06c1.7-.91,4.09-.78,7.16.39,3.07,1.18,6.08,3.01,9.02,5.49,2.94,2.49,5.42,5.3,7.45,8.43,2.03,3.14,2.84,6.21,2.45,9.22-.26,1.05-.69,2.68-1.28,4.9-.59,2.23-1.21,4.71-1.86,7.45v-.39c-1.05,4.32-2.26,9.22-3.63,14.71s-2.62,10.92-3.73,16.28c-1.11,5.36-1.96,10.37-2.55,15.01-.59,4.64-.69,8.4-.29,11.28,0,1.05-.07,1.57-.2,1.57h1.96c3.4-1.31,6.44-3.46,9.12-6.47,2.68-3.01,5.13-6.47,7.36-10.4,2.22-3.92,4.25-8.07,6.08-12.46,1.83-4.38,3.53-8.6,5.1-12.65l2.16-5.69c.79-1.7,1.99-2.61,3.63-2.75,1.63-.13,3.24.29,4.81,1.28,1.57.98,2.81,2.39,3.73,4.22.91,1.83.98,3.92.2,6.28l-3.14,7.46c-3.01,7.45-6.34,15.04-10,22.75-3.66,7.72-8.11,14.52-13.34,20.4-.92,1.05-2.09,2.19-3.53,3.43-1.44,1.24-3.07,2.39-4.9,3.43-1.83,1.05-3.86,1.93-6.08,2.65-2.23.72-4.64,1.08-7.26,1.08-5.88-.26-10.56-2.68-14.03-7.26-3.47-4.58-5.72-10.2-6.77-16.87l-.2-.2c-1.44,2.62-2.94,5.07-4.51,7.36-1.57,2.29-3.27,4.41-5.1,6.38-.92,1.05-2.09,2.19-3.53,3.43-1.44,1.24-3.07,2.39-4.9,3.43-1.83,1.05-3.86,1.93-6.08,2.65-2.23.72-4.64,1.08-7.26,1.08-5.76-.26-10.33-2.68-13.73-7.26s-5.62-10.13-6.67-16.67c-.26-1.44-.46-3.01-.59-4.71-.13-1.7-.2-3.27-.2-4.71.26-5.88,1.01-13.04,2.26-21.48,1.24-8.44,2.58-16.77,4.02-25.01,1.05-6.67,2.06-13.05,3.04-19.13.98-6.08,1.6-11.15,1.86-15.2l1.57-2.75c1.57-.91,3.89-.78,6.96.39,3.07,1.18,6.08,3.01,9.02,5.49,2.94,2.49,5.46,5.3,7.55,8.43,2.09,3.14,2.94,6.21,2.55,9.22-.26,1.18-.66,2.94-1.18,5.3-.52,2.35-1.25,5.04-2.16,8.04v-.2c-1.18,4.32-2.42,9.12-3.73,14.42-1.31,5.3-2.49,10.56-3.53,15.79-1.05,5.23-1.83,10.17-2.35,14.81-.52,4.64-.59,8.34-.2,11.08,0,1.05-.07,1.57-.2,1.57h1.77c3.4-1.31,6.44-3.43,9.12-6.38,2.68-2.94,5.1-6.28,7.26-10,2.16-3.73,4.12-7.71,5.88-11.97,1.77-4.25,3.43-8.4,5-12.46h-.2c.26-.65.55-1.34.88-2.06.32-.72.62-1.4.88-2.06l1.96-11.18c1.31-6.93,2.45-13.54,3.43-19.81.98-6.28,1.6-11.51,1.86-15.69l1.77-2.75Z"/>
        <path class="cls-2" d="m350.35,123.98c-4.05,11.77-10.1,21.58-18.15,29.42s-17.56,13.67-28.54,17.46c.79,3.53,2.12,6.87,4.02,10,1.89,3.14,4.41,5.04,7.55,5.69l-.39-.2c2.75.66,5.72.46,8.93-.59,3.2-1.04,6.5-2.91,9.91-5.59,3.4-2.68,6.73-6.18,10-10.5,3.27-4.32,6.34-9.42,9.22-15.3,1.44-3.14,2.78-6.38,4.02-9.71,1.24-3.33,2.38-6.5,3.43-9.51.91-1.7,2.26-2.62,4.02-2.75,1.77-.13,3.4.29,4.9,1.28,1.5.98,2.68,2.35,3.53,4.12.85,1.77.88,3.76.1,5.98l-2.55,7.06c-2.35,5.88-5.3,12.39-8.83,19.52-3.53,7.13-8.04,14.03-13.54,20.7-3.27,3.66-6.67,6.51-10.2,8.53-3.53,2.03-6.93,3.53-10.2,4.51-3.27.98-6.25,1.57-8.93,1.77-2.68.2-4.81.29-6.38.29-10.2,0-18.54-2.94-25.01-8.83-6.47-5.89-10.69-13.93-12.65-24.13-1.7-8.89-1.67-17.59.1-26.09,1.77-8.5,5.13-17.72,10.1-27.66,1.7-3.27,4.12-6.77,7.26-10.5,3.14-3.73,6.77-7.16,10.89-10.3s8.6-5.69,13.44-7.65c4.84-1.96,9.87-2.88,15.1-2.75,5.49.13,10.17,1.93,14.03,5.39,3.86,3.47,6.24,8.14,7.16,14.03.39,2.62.42,5.27.1,7.95-.33,2.68-1.15,5.53-2.45,8.53v-.2Zm-15.3-16.09c-4.32.92-8.24,3.01-11.77,6.28-3.53,3.27-6.64,7.13-9.32,11.57-2.68,4.45-4.87,9.19-6.57,14.22-1.7,5.04-2.94,9.78-3.73,14.22,7.98-3.79,14.91-8.92,20.79-15.4s10.2-14.22,12.95-23.25v.2c.39-1.04.62-2.09.69-3.14.06-1.04.03-1.96-.1-2.75-.39-1.83-1.37-2.48-2.94-1.96Z"/>
      </g>
    </g>
  </g>
</svg>