<?xml version="1.0" encoding="UTF-8"?>
<svg id="Layer_2" data-name="Layer 2" xmlns="http://www.w3.org/2000/svg" viewBox="0 0 944.63 207.55">
  <defs>
    <style>
      .cls-1 {
        fill: #92e8e0;
      }

      .cls-2 {
        fill: #006359;
      }

      .cls-3 {
        fill: #00a99d;
      }
    </style>
  </defs>
  <g id="Layer_1-2" data-name="Layer 1">
    <g>
      <path class="cls-3" d="m146.99,6.42l-26.37,104.41-.79,3.12-3.14,12.44h-.42v-.02l-4.09-16.18-.84-3.32-.77-3.03-4.76.32,3.23-6.41-1.58-6.26-4.18-6.13c-1-1.47-3.01-1.85-4.48-.85-.12.08-.23.16-.33.26l-7.19-9.84c.73-.24,1.37-.75,1.77-1.48,2.57-4.69,4.33-9.66,5.29-14.72.13-.67.24-1.34.34-2.01h0s-3.12-12.31-3.12-12.31l-1.91-7.57-4.24-16.81-15.4-13.61h-21.46l.04.14c4.24.3,8.42,1.22,12.4,2.75h.01c22.23,19.95,12.17,43.1,4.97,54.31l8.01,26.29,47.68,71.38v.04s-22.03-.71-22.03-.71l-7.44-10.93,5.27,17.3.28.92h29.48l6.13-20.13,2.5-8.19L180.41,6.42h-33.42Z"/>
      <path class="cls-3" d="m190.16,6.42v161.49h30.72V6.42h-30.72Z"/>
      <path class="cls-3" d="m308.05,51.67v81.36c-5.81,6.23-12.86,12.67-21.79,12.67-13.28,0-12.66-14.74-12.66-24.08V51.67h-30.72v82.4c0,28.65,17.85,36.33,30.51,36.33s24.91-6.44,34.66-14.53v12.04h30.72V51.67h-30.72Z"/>
      <path class="cls-3" d="m459.57,117.05c.83-53.97-21.58-67.87-50.85-67.87-34.04,0-51.06,29.68-51.06,60.61s17.23,60.61,51.06,60.61c22,0,44.21-13.08,50.85-36.12l-28.43-5.19c-2.29,9.76-8.31,18.68-19.31,18.68-15.77,0-24.28-16.6-23.24-30.72h70.98Zm-50.02-45.25c14.74,0,19.93,12.87,19.93,25.95h-39.86c.42-12.46,6.02-25.95,19.93-25.95Z"/>
      <path class="cls-2" d="m512.08,50.01c0-11,9.13-18.68,19.72-18.68,13.07,0,19.3,11.41,22.42,22.62l29.26-5.19c-2.7-27.19-23.25-44.83-50.64-44.83s-52.52,20.76-52.52,49.81c0,55.01,75.97,36.33,75.97,68.71,0,13.91-10.59,20.55-23.25,20.55-15.36,0-22.41-10.17-25.32-23.87l-32.38,4.77c4.98,31.55,27.19,46.5,57.91,46.5,39.85,0,54.8-29.48,54.8-49.2,0-60.19-75.97-39.43-75.97-71.19Z"/>
      <path class="cls-2" d="m671.9,49.18c-12.87,0-24.91,6.43-34.67,14.53V6.42h-30.72v161.49h30.72v-81.37c5.82-6.23,12.87-12.66,21.8-12.66,13.28,0,12.66,14.74,12.66,24.08v69.95h30.72v-82.41c0-28.64-17.85-36.32-30.51-36.32Z"/>
      <path class="cls-2" d="m772.35,49.18c-34.04,0-51.06,29.68-51.06,60.61s17.23,60.61,51.06,60.61,51.07-29.89,51.07-60.61-17.02-60.61-51.07-60.61Zm0,98.59c-16.6,0-19.51-23.45-19.51-37.98s2.91-37.99,19.51-37.99,19.52,23.46,19.52,37.99-2.91,37.98-19.52,37.98Z"/>
      <path class="cls-2" d="m902.08,49.18c-12.46,0-19.93,6.22-28.65,13.9v-11.41h-30.72v155.88h30.72v-47.95c8.51,6.44,16.4,10.8,26.16,10.8,23.45,0,45.04-14.53,45.04-63.52,0-42.96-25.74-57.7-42.55-57.7Zm-8.72,98.59c-9.13,0-15.15-6.43-19.93-13.7v-44.83c5.4-6.44,11.63-12.66,20.55-12.66,17.02,0,20.55,21.58,20.55,34.45,0,13.91-2.7,36.74-21.17,36.74Z"/>
    </g>
    <g>
      <path class="cls-1" d="m136.13,139.89c-.28,2.47-8.23,24.75-8.23,24.75l-2.24-3.35-47.68-71.38-13.04-19.52s2.31-2.53,5.03-6.77c7.2-11.21,17.26-34.36-4.97-54.31h-.01c-1.08-.99-2.23-1.94-3.47-2.89-1.04-.81-2.14-1.6-3.29-2.39,3.35.46,6.42,1.28,9.22,2.39,15.76,6.23,23.11,21.39,26.2,30.42,1.45,4.23,1.96,7.11,1.96,7.11l-.05.46-2.37,24-3.4,4.49,1.49,2.03,7.19,9.84,7.23,9.87s-5.83,10.04-4.75,10.94c.84.7,7.52,1.13,10.39,1.29.81.04,1.32.06,1.32.06,0,0,4.31,3.91,7.17,7.02,1.57,1.7,2.7,3.15,2.46,3.6-.68,1.27-4.79,14.23-4.79,14.23,0,0,18.92,5.63,18.63,8.11Z"/>
      <g>
        <path class="cls-2" d="m59.58,33.4c-5.39-7.92-16.21-9.97-24.13-4.58-7.92,5.39-9.98,16.21-4.59,24.13s16.22,9.98,24.14,4.59c3.96-2.7,6.45-6.75,7.28-11.12s0-9.06-2.7-13.02Zm-8.22,18.8c-4.97,3.39-11.77,2.1-15.16-2.88-1.7-2.49-2.22-5.43-1.7-8.18.52-2.74,2.09-5.29,4.58-6.98,4.98-3.39,11.78-2.1,15.16,2.88,3.39,4.98,2.1,11.78-2.88,15.16Z"/>
        <path class="cls-2" d="m139.83,140.72c-.04.17-.08.33-.13.49l-2.35,6.57-6.41,17.94c-.47,1.32-1.74,2.19-3.14,2.14l-26.02-.84c-.11,0-.22-.01-.32-.03-.91-.12-1.73-.62-2.25-1.38l-45.35-66.63-1.06-1.56c-1.01-1.48-.63-3.48.85-4.49.98-.67,2.21-.72,3.21-.24.09.04.18.09.27.14.15.09.29.19.43.3.06.06.12.11.18.18.05.05.1.09.14.15.09.1.17.21.25.32l38.06,55.91,7.44,10.93,22.02.71v-.04s6.96-19.44,6.96-19.44l-15.78-7.06c-1.45-.65-2.18-2.25-1.8-3.77l1.24-4.63v-.02l2-7.53-5.9-8.66h-.19s-11.59.8-11.59.8c-1.16.08-2.27-.47-2.91-1.43-.65-.97-.72-2.21-.19-3.24l5.21-10.33-4.75-6.98c-.93-1.36-.67-3.17.52-4.23.1-.1.21-.18.33-.26,1.47-1,3.48-.62,4.48.85l4.18,6.13,1.65,2.43c.66.97.75,2.22.21,3.27l-.28.56-3.23,6.41,4.76-.32,3.21-.22c1.14-.08,2.24.45,2.88,1.4l3.96,5.81,3.81,5.6c.53.78.69,1.76.46,2.65l-2.92,10.94,16,7.16c1.03.45,1.7,1.38,1.88,2.41.05.37.05.75-.02,1.13Z"/>
        <path class="cls-2" d="m98.68,56.71h0c-.1.68-.21,1.35-.34,2.02-.96,5.06-2.72,10.03-5.29,14.72-.4.73-1.04,1.24-1.77,1.48-.83.3-1.78.25-2.62-.2-1.56-.86-2.13-2.82-1.28-4.39,7.85-14.31,7.04-31.57-2.12-45.03-5.15-7.56-12.29-12.97-20.26-16h-.01c-3.98-1.53-8.16-2.45-12.4-2.75-9.34-.66-18.96,1.69-27.28,7.36C5.63,27.31.53,54.2,13.92,73.87c9.16,13.46,24.91,20.54,41.11,18.49.65-.09,1.28.04,1.83.33.09.04.18.09.27.14.15.09.29.19.43.3.06.06.12.11.18.18.05.05.1.09.14.15.09.1.17.21.25.32.27.4.45.87.51,1.38.22,1.77-1.02,3.38-2.79,3.61-.66.08-1.33.16-1.99.21-17.92,1.55-35.13-6.55-45.28-21.47C-6.81,54.89-.94,23.98,21.67,8.59,37.77-2.38,58.09-2.55,74.01,6.42c5.88,3.31,11.16,7.88,15.4,13.61.41.54.8,1.09,1.18,1.65,7.14,10.47,9.87,22.95,8.09,35.03Z"/>
      </g>
    </g>
  </g>
</svg>